<svg xmlns="http://www.w3.org/2000/svg" width="16" height="16" fill="none"><g clip-path="url(#a)"><path stroke="#ABBFD4" stroke-linecap="round" stroke-linejoin="round" d="M1.333 8h13.334M1.334 8A6.667 6.667 0 0 0 8 14.667M1.333 8A6.667 6.667 0 0 1 8 1.333M14.667 8A6.667 6.667 0 0 1 8 14.667M14.667 8A6.667 6.667 0 0 0 8 1.333m0 0A10.2 10.2 0 0 1 10.667 8 10.2 10.2 0 0 1 8 14.667M8 1.333A10.2 10.2 0 0 0 5.333 8 10.2 10.2 0 0 0 8 14.667"/></g><defs><clipPath id="a"><path fill="#fff" d="M0 0h16v16H0z"/></clipPath></defs></svg>