<svg width="24" height="24" viewBox="0 0 24 24" fill="none" xmlns="http://www.w3.org/2000/svg">
<path d="M3 20V18.5H15V20H3ZM15.9973 12.75C14.6824 12.75 13.5625 12.2866 12.6375 11.3598C11.7125 10.4331 11.25 9.31225 11.25 7.99735C11.25 6.68245 11.7134 5.5625 12.6402 4.6375C13.5669 3.7125 14.6878 3.25 16.0027 3.25C17.3176 3.25 18.4375 3.71338 19.3625 4.64015C20.2875 5.56692 20.75 6.68775 20.75 8.00265C20.75 9.31755 20.2866 10.4375 19.3598 11.3625C18.4331 12.2875 17.3123 12.75 15.9973 12.75ZM3 11.5V10H9.55C9.63867 10.272 9.74 10.5317 9.854 10.779C9.968 11.0263 10.0917 11.2667 10.225 11.5H3ZM3 15.75V14.25H13.475C13.705 14.3561 13.95 14.4451 14.21 14.5171C14.47 14.589 14.7333 14.6417 15 14.675V15.75H3ZM15.5 11H16.5V7H15.5V11ZM16 6C16.1333 6 16.25 5.95 16.35 5.85C16.45 5.75 16.5 5.63333 16.5 5.5C16.5 5.36667 16.45 5.25 16.35 5.15C16.25 5.05 16.1333 5 16 5C15.8667 5 15.75 5.05 15.65 5.15C15.55 5.25 15.5 5.36667 15.5 5.5C15.5 5.63333 15.55 5.75 15.65 5.85C15.75 5.95 15.8667 6 16 6Z" fill="white"/>
</svg>
