<svg width="24" height="24" viewBox="0 0 24 24" fill="none" xmlns="http://www.w3.org/2000/svg">
<path d="M12 22L3 16.85V6.875L12 2L21 6.875V16.85L12 22ZM9.15 9.55C9.53333 9.16667 9.97083 8.85417 10.4625 8.6125C10.9542 8.37083 11.4667 8.25 12 8.25C12.5333 8.25 13.0458 8.37083 13.5375 8.6125C14.0292 8.85417 14.4667 9.16667 14.85 9.55L18.675 7.3L12 3.75L5.325 7.3L9.15 9.55ZM11.25 19.85V15.675C10.3833 15.4417 9.66667 14.9917 9.1 14.325C8.53333 13.6583 8.25 12.8833 8.25 12C8.25 11.8167 8.2625 11.6292 8.2875 11.4375C8.3125 11.2458 8.35833 11.0583 8.425 10.875L4.5 8.55V15.975L11.25 19.85ZM12 14.25C12.6333 14.25 13.1667 14.0333 13.6 13.6C14.0333 13.1667 14.25 12.6333 14.25 12C14.25 11.3667 14.0333 10.8333 13.6 10.4C13.1667 9.96667 12.6333 9.75 12 9.75C11.3667 9.75 10.8333 9.96667 10.4 10.4C9.96667 10.8333 9.75 11.3667 9.75 12C9.75 12.6333 9.96667 13.1667 10.4 13.6C10.8333 14.0333 11.3667 14.25 12 14.25ZM12.75 19.85L19.5 15.975V8.55L15.575 10.875C15.6417 11.0583 15.6875 11.2458 15.7125 11.4375C15.7375 11.6292 15.75 11.8167 15.75 12C15.75 12.8833 15.4667 13.6583 14.9 14.325C14.3333 14.9917 13.6167 15.4417 12.75 15.675V19.85Z" fill="white"/>
</svg>
