<svg width="22" height="22" viewBox="0 0 22 22" fill="none" xmlns="http://www.w3.org/2000/svg">
<g clip-path="url(#clip0_2415_4186)">
<path d="M11.0003 21.0827C9.28921 21.0827 7.63921 20.5785 6.05033 19.5702C4.46144 18.5618 3.20866 17.4084 2.29199 16.1098V19.2493H0.916992V13.7493H6.41699V15.1243H3.27741C4.05658 16.3007 5.16803 17.3587 6.61178 18.2983C8.05553 19.2379 9.51838 19.7077 11.0003 19.7077C12.192 19.7077 13.3187 19.4785 14.3805 19.0202C15.4423 18.5618 16.3666 17.9393 17.1535 17.1525C17.9403 16.3657 18.5628 15.4414 19.0212 14.3796C19.4795 13.3178 19.7087 12.191 19.7087 10.9993H21.0837C21.0837 12.3896 20.8201 13.6959 20.293 14.9181C19.7659 16.1403 19.0441 17.2098 18.1274 18.1264C17.2107 19.0431 16.1413 19.765 14.9191 20.2921C13.6969 20.8191 12.3906 21.0827 11.0003 21.0827ZM10.3357 17.5764V16.3389C9.64824 16.1556 9.07151 15.8615 8.60553 15.4566C8.13956 15.0518 7.74616 14.498 7.42532 13.7952L8.59408 13.4056C8.77741 13.9862 9.10206 14.4445 9.56803 14.7806C10.034 15.1167 10.5649 15.2848 11.1607 15.2848C11.7719 15.2848 12.2798 15.1358 12.6847 14.8379C13.0896 14.54 13.292 14.1466 13.292 13.6577C13.292 13.1535 13.101 12.7296 12.7191 12.3858C12.3371 12.0421 11.6344 11.6563 10.6107 11.2285C9.69407 10.8466 9.00657 10.4341 8.54824 9.99102C8.08991 9.54796 7.86074 8.95213 7.86074 8.20352C7.86074 7.53129 8.08991 6.95838 8.54824 6.48477C9.00657 6.01115 9.61769 5.72088 10.3816 5.61393V4.44518H11.642V5.61393C12.2225 5.67504 12.7267 5.85838 13.1545 6.16393C13.5823 6.46949 13.926 6.88963 14.1857 7.42435L13.0857 7.95143C12.8566 7.52365 12.5739 7.20282 12.2378 6.98893C11.9017 6.77504 11.5045 6.6681 11.0462 6.6681C10.4503 6.6681 9.98053 6.8056 9.63678 7.0806C9.29303 7.3556 9.12116 7.7299 9.12116 8.20352C9.12116 8.6924 9.31977 9.08199 9.71699 9.37226C10.1142 9.66254 10.7559 9.99102 11.642 10.3577C12.6962 10.8007 13.4448 11.2667 13.8878 11.7556C14.3309 12.2445 14.5524 12.8785 14.5524 13.6577C14.5524 14.0396 14.4837 14.391 14.3462 14.7118C14.2087 15.0327 14.0139 15.3077 13.7618 15.5368C13.5097 15.766 13.2003 15.9532 12.8337 16.0983C12.467 16.2434 12.0545 16.3389 11.5962 16.3848V17.5764H10.3357ZM0.916992 10.9993C0.916992 9.60907 1.18053 8.30282 1.70762 7.0806C2.2347 5.85838 2.95658 4.78893 3.87324 3.87227C4.78991 2.9556 5.85935 2.23372 7.08157 1.70664C8.3038 1.17956 9.61005 0.916016 11.0003 0.916016C12.7114 0.916016 14.3614 1.42018 15.9503 2.42852C17.5392 3.43685 18.792 4.59032 19.7087 5.88893V2.74935H21.0837V8.24935H15.5837V6.87435H18.7232C17.9441 5.69796 16.8364 4.63997 15.4003 3.70039C13.9642 2.76081 12.4975 2.29102 11.0003 2.29102C9.80866 2.29102 8.68192 2.52018 7.62012 2.97852C6.55831 3.43685 5.63401 4.05942 4.8472 4.84622C4.06039 5.63303 3.43783 6.55733 2.97949 7.61914C2.52116 8.68095 2.29199 9.80768 2.29199 10.9993H0.916992Z" fill="white"/>
</g>
<defs>
<clipPath id="clip0_2415_4186">
<rect width="22" height="22" fill="white"/>
</clipPath>
</defs>
</svg>
