<svg xmlns="http://www.w3.org/2000/svg" width="12" height="12" fill="none"><g clip-path="url(#a)"><path fill="#64CB8C" d="M5.16 7.08 3.855 5.775a.55.55 0 0 0-.405-.165c-.16 0-.3.06-.42.18a.569.569 0 0 0-.165.42c0 .17.055.31.165.42l1.71 1.71c.11.11.25.165.42.165.17 0 .31-.055.42-.165l3.405-3.405a.55.55 0 0 0 .165-.405c0-.16-.06-.3-.18-.42a.569.569 0 0 0-.42-.165c-.17 0-.31.055-.42.165L5.16 7.08ZM6 12a5.84 5.84 0 0 1-2.34-.473 6.055 6.055 0 0 1-1.905-1.282A6.055 6.055 0 0 1 .473 8.34 5.84 5.84 0 0 1 0 6c0-.83.158-1.61.473-2.34a6.055 6.055 0 0 1 1.282-1.905A6.063 6.063 0 0 1 3.66.472 5.846 5.846 0 0 1 6 0c.83 0 1.61.157 2.34.472.73.315 1.365.743 1.905 1.283.54.54.967 1.175 1.282 1.905.315.73.473 1.51.473 2.34 0 .83-.158 1.61-.473 2.34a6.055 6.055 0 0 1-1.282 1.905c-.54.54-1.175.967-1.905 1.282A5.84 5.84 0 0 1 6 12Z"/></g><defs><clipPath id="a"><path fill="#fff" d="M0 0h12v12H0z"/></clipPath></defs></svg>