<svg xmlns="http://www.w3.org/2000/svg" width="25" height="19" fill="none"><path fill="#ABBFD4" d="M9.174 9.5c0 .866.338 1.696.94 2.308a3.186 3.186 0 0 0 2.271.956c.852 0 1.669-.344 2.271-.956.602-.612.94-1.442.94-2.308 0-.866-.338-1.696-.94-2.308a3.185 3.185 0 0 0-2.27-.956c-.852 0-1.67.344-2.271.956a3.291 3.291 0 0 0-.94 2.308Zm15.66-.752C22.116 2.928 18.008 0 12.5 0 6.99 0 2.884 2.929.166 8.751a1.781 1.781 0 0 0 0 1.5C2.884 16.072 6.992 19 12.5 19c5.51 0 9.616-2.929 12.334-8.751.221-.472.221-1.02 0-1.5Zm-12.449 5.88c-2.787 0-5.046-2.296-5.046-5.128 0-2.833 2.26-5.129 5.046-5.129 2.787 0 5.046 2.296 5.046 5.129 0 2.832-2.259 5.129-5.046 5.129Z"/></svg>