<svg width="478" height="60" viewBox="0 0 478 60" fill="none" xmlns="http://www.w3.org/2000/svg">
<g clip-path="url(#clip0_433_5)">
<path d="M40.5045 18.7739V5.61256H19.5738V53.3222H28.9975V57.5803H0.428467V53.3222H9.85228V5.61256H0.428467V1.35449H47.4483V18.7739H40.5045Z" fill="#292929"/>
<path d="M108.257 53.9033V58.1613H89.5086V53.0323C85.3421 57.2903 78.0016 59.5161 71.8513 59.5161C57.9636 59.5161 50.8213 49.6451 50.8213 40.8387C50.8213 30.5807 58.8563 20.3226 72.744 20.3226C79.5887 20.3226 85.739 22.5484 89.6077 27.2903V18.4839C89.6077 7.35485 82.5647 4.54839 76.6127 4.54839C68.0817 4.54839 61.6339 9.77421 60.5427 10.742L56.9716 6.09679C62.725 1.93549 68.2802 0.483887 76.216 0.483887C98.3372 0.483887 98.6347 13.4516 98.6347 27.2903V53.8064H108.257V53.9033ZM89.5086 35.2259C87.9213 30.871 83.9534 25.4516 77.0096 25.4516C68.4786 25.4516 60.8403 30.9677 60.8403 40.9354C60.8403 49.258 68.2802 54.2903 75.4224 54.2903C80.3823 54.2903 86.8301 51.3871 89.5086 45V35.2259Z" fill="#292929"/>
<path d="M113.118 18.7744V1.83883H117.482V6.09688L117.185 7.74204H117.978L118.574 6.00011C121.55 3.09688 126.013 0.387207 134.247 0.387207C148.73 0.387207 153.889 8.80657 153.889 14.9034C153.889 18.5808 153.094 26.5162 140.695 28.1614V28.9356C149.623 29.0324 157.657 34.5485 157.657 43.3549C157.657 52.2582 148.829 59.5162 131.37 59.5162C121.748 59.5162 113.217 57.0001 107.86 47.6131L113.217 43.2582C115.498 51.1936 123.038 55.6452 132.66 55.6452C142.183 55.6452 146.846 49.0646 146.846 43.5485C146.846 31.6452 136.231 31.1614 130.378 31.1614H126.311V27.2905H130.18C137.719 27.2905 144.366 24.0001 144.366 15.5808C144.366 9.58075 140.397 4.9356 134.148 4.9356C123.534 4.9356 117.383 10.4517 117.582 18.6775H113.118V18.7744Z" fill="#292929"/>
<path d="M175.216 31.1613C175.216 37.4516 177.001 54.7742 194.956 54.7742C202.891 54.7742 209.141 52.0646 215.689 45.6774L218.863 48.9677C213.01 55.6452 202.891 59.4193 194.163 59.4193C179.68 59.4193 164.106 50.6129 164.106 29.7097C164.106 9.77421 178.589 0.483887 191.683 0.483887C205.769 0.483887 219.854 9.77421 218.863 31.1613H175.216ZM208.05 27.2903C208.05 12.7742 200.809 4.25808 191.384 4.25808C181.663 4.25808 174.72 14.5162 175.216 27.2903H208.05Z" fill="#292929"/>
<path d="M237.611 53.9033H246.936V6.1936H230.964V18.871H224.12V1.93555H279.571V18.871H272.628V6.1936H256.757V53.9033H266.081V58.1613H237.611V53.9033Z" fill="#292929"/>
<path d="M341.273 53.9034V58.1613H322.524V53.0324C318.359 57.2905 311.017 59.5162 304.867 59.5162C290.98 59.5162 283.837 49.6452 283.837 40.8388C283.837 30.5808 291.873 20.3226 305.661 20.3226C312.506 20.3226 318.656 22.5485 322.524 27.2905V18.4839C322.524 7.35495 315.481 4.5485 309.53 4.5485C300.999 4.5485 294.551 9.77431 293.46 10.742L289.987 6.00011C295.84 1.83881 301.396 0.387207 309.233 0.387207C331.353 0.387207 331.651 13.2582 331.651 27.1936V53.7098H341.273V53.9034ZM322.426 35.2259C320.839 30.8711 316.87 25.4518 309.927 25.4518C301.396 25.4518 293.757 30.9678 293.757 40.9356C293.757 49.2582 301.197 54.2905 308.34 54.2905C313.299 54.2905 319.747 51.3872 322.426 45.0001V35.2259Z" fill="#292929"/>
<path d="M384.623 2.03208V10.9353H385.218C388.094 4.2579 392.161 0.677246 398.511 0.677246C400.098 0.677246 404.958 1.06434 407.836 4.74175L402.876 12.5805C400.396 8.90305 397.42 8.03208 394.94 8.03208C389.286 8.03208 384.524 15.6773 384.524 24.1934V53.9998H393.947V58.2579H365.477V53.9998H374.901V6.29015H365.477V2.03208H384.623Z" fill="#292929"/>
<path d="M430.949 1.64551V39.3874C430.949 42.2907 430.949 54.2907 443.547 54.2907C451.483 54.2907 458.327 49.5487 458.327 38.1294V5.90358H448.903V1.64551H468.049V53.6133H477.473V57.8713H458.327V53.323L458.923 50.5166H458.229L456.74 53.2261C451.284 58.8391 444.539 59.4197 439.876 59.4197C421.127 59.4197 421.127 43.3551 421.127 38.8068V5.90358H411.704V1.64551H430.949Z" fill="#292929"/>
<path d="M353.077 59.4091C356.419 59.4091 359.128 56.6837 359.128 53.3217C359.128 49.9598 356.419 47.2344 353.077 47.2344C349.735 47.2344 347.026 49.9598 347.026 53.3217C347.026 56.6837 349.735 59.4091 353.077 59.4091Z" fill="#292929"/>
</g>
<defs>
<clipPath id="clip0_433_5">
<rect width="477.143" height="60" fill="white" transform="translate(0.428467)"/>
</clipPath>
</defs>
</svg>
