<svg width="174" height="46" viewBox="0 0 174 46" fill="none" xmlns="http://www.w3.org/2000/svg">
<path d="M1 8.98305C0.984345 8.74084 1.06199 8.50182 1.217 8.31505C1.29887 8.2287 1.39847 8.1611 1.50895 8.11691C1.61943 8.07272 1.73817 8.05298 1.857 8.05905H21.232C21.3559 8.05192 21.4799 8.07104 21.5958 8.11515C21.7118 8.15927 21.8172 8.22739 21.905 8.31505C22.064 8.51205 22.145 8.76205 22.134 9.01605V13.969C22.1287 14.2067 22.0485 14.4366 21.905 14.626C21.8254 14.7282 21.7232 14.8105 21.6064 14.8665C21.4896 14.9226 21.3615 14.9508 21.232 14.949H8.56V19.924H18.334C18.554 19.914 18.77 19.976 18.953 20.102C19.0388 20.1751 19.1054 20.2681 19.1469 20.3729C19.1884 20.4777 19.2035 20.591 19.191 20.703V24.966C19.1899 25.1238 19.1428 25.2777 19.0556 25.4091C18.9684 25.5405 18.8449 25.6437 18.7 25.706C18.5912 25.7524 18.4731 25.7733 18.355 25.767H8.58V30.9H21.72C21.841 30.8825 21.9644 30.8943 22.08 30.9343C22.1955 30.9743 22.2998 31.0414 22.384 31.13C22.47 31.2195 22.5342 31.3275 22.5717 31.4458C22.6092 31.5641 22.6188 31.6894 22.6 31.812V36.843C22.5986 36.912 22.5835 36.9801 22.5557 37.0432C22.5279 37.1064 22.4879 37.1634 22.438 37.211C22.438 37.578 22.123 37.767 21.645 37.767H1.858C1.6286 37.781 1.40274 37.7053 1.228 37.556C1.14539 37.4714 1.0822 37.3697 1.04283 37.2582C1.00346 37.1466 0.988844 37.0278 1 36.91V8.98305ZM24.555 37.287L24.87 36.675C24.979 36.475 25.11 36.263 25.25 36.052L34.047 22.584L29.605 15.728L25.152 8.88205C25.0838 8.7864 25.0224 8.68617 24.968 8.58205C24.923 8.4832 24.8936 8.37793 24.881 8.27005C24.881 8.15905 24.979 8.11405 25.109 8.11405C25.2415 8.12084 25.3733 8.08998 25.489 8.02505H32.288C32.53 8.02605 32.767 8.09905 32.969 8.23505C33.172 8.37205 33.331 8.56505 33.428 8.79305L38.217 16.162L43.061 8.80505C43.154 8.58505 43.305 8.39705 43.496 8.26205C43.6869 8.12676 43.9123 8.04871 44.146 8.03705H51.053C51.164 8.04605 51.273 8.06805 51.379 8.10305C51.4173 8.11795 51.4502 8.14406 51.4734 8.17796C51.4966 8.21186 51.509 8.25197 51.509 8.29305C51.5002 8.48417 51.4232 8.66582 51.292 8.80505L42.355 22.584L51.531 36.608C51.646 36.768 51.744 36.94 51.825 37.12C51.8928 37.2386 51.9264 37.3736 51.922 37.51C51.922 37.71 51.802 37.81 51.564 37.81H44.57C44.3509 37.8115 44.1374 37.7413 43.962 37.61C43.7722 37.4694 43.6225 37.2815 43.528 37.065L38.217 28.995L32.961 37.065C32.8662 37.2816 32.7162 37.4696 32.526 37.61C32.35 37.742 32.136 37.812 31.918 37.81H24.903C24.8049 37.8117 24.7091 37.7803 24.631 37.721C24.5919 37.6912 24.5606 37.6523 24.5397 37.6077C24.5188 37.5632 24.5089 37.5142 24.511 37.465C24.5085 37.4027 24.5238 37.341 24.555 37.287ZM55.886 8.93905C55.8792 8.71146 55.9565 8.48934 56.103 8.31505C56.1845 8.22796 56.2842 8.15989 56.395 8.11565C56.5058 8.0714 56.6249 8.05208 56.744 8.05905H63.141C63.337 8.06205 63.531 8.11205 63.705 8.20405C63.917 8.31005 64.095 8.47605 64.215 8.68305C65.866 11.421 67.506 14.118 69.135 16.774L74.088 24.866V8.81605C74.1363 8.59654 74.2637 8.40252 74.446 8.27105C74.5959 8.13921 74.7894 8.06791 74.989 8.07105H80.56C80.807 8.06605 81.049 8.14905 81.244 8.30405C81.3368 8.38289 81.4097 8.48242 81.457 8.59463C81.5042 8.70685 81.5244 8.82859 81.516 8.95005V37.032C81.526 37.1424 81.5094 37.2536 81.4677 37.3562C81.4259 37.4589 81.3602 37.55 81.276 37.622C81.0905 37.7563 80.8647 37.8229 80.636 37.811H74.36C74.1905 37.8143 74.0265 37.7503 73.904 37.633C73.7542 37.4873 73.6195 37.3269 73.502 37.154L68.354 28.439C66.6388 25.5316 64.9195 22.6266 63.196 19.724V36.932C63.2132 37.1673 63.1435 37.4008 63 37.588C62.9037 37.671 62.7916 37.7336 62.6704 37.7719C62.5492 37.8103 62.4215 37.8236 62.295 37.811H56.745C56.6238 37.8251 56.501 37.8091 56.3875 37.7645C56.274 37.7198 56.1732 37.6479 56.094 37.555C55.9526 37.3875 55.8788 37.1732 55.887 36.954L55.886 8.93905ZM146.317 22.962C146.32 24.3264 146.141 25.685 145.785 27.002C145.442 28.2408 144.934 29.4277 144.275 30.531C142.98 32.7248 141.139 34.5461 138.932 35.818C136.631 37.1113 134.034 37.7862 131.395 37.777H121.763C121.543 37.78 121.327 37.727 121.133 37.621C120.948 37.51 120.861 37.287 120.861 36.931V8.98205C120.858 8.85045 120.881 8.71957 120.93 8.59725C120.979 8.47492 121.051 8.36364 121.144 8.27005C121.228 8.17627 121.332 8.1033 121.449 8.05695C121.566 8.0106 121.692 7.99214 121.817 8.00305H131.45C132.788 8.00005 134.12 8.17605 135.414 8.52605C136.657 8.86322 137.851 9.36073 138.965 10.006C140.062 10.6469 141.076 11.4208 141.984 12.31C142.892 13.2046 143.677 14.2154 144.319 15.316C144.975 16.4406 145.482 17.6453 145.828 18.9C146.176 20.224 146.341 21.591 146.317 22.962ZM128.431 15.227V30.642H130.95L131.808 30.576C132.758 30.5001 133.685 30.251 134.545 29.841C135.357 29.4383 136.093 28.8957 136.717 28.238C137.358 27.5612 137.863 26.7679 138.205 25.901C138.572 24.971 138.756 23.976 138.748 22.973C138.759 21.9422 138.561 20.9198 138.166 19.9676C137.771 19.0154 137.187 18.1532 136.449 17.433C135.741 16.7423 134.901 16.2003 133.98 15.839C133.022 15.4479 131.996 15.2511 130.961 15.26L128.431 15.227ZM151.421 8.98305C151.406 8.74087 151.483 8.50197 151.638 8.31505C151.72 8.22878 151.82 8.16125 151.931 8.11707C152.041 8.07289 152.16 8.0531 152.279 8.05905H171.664C171.787 8.05046 171.909 8.06894 172.024 8.11318C172.139 8.15743 172.242 8.22634 172.327 8.31505C172.494 8.50966 172.579 8.76104 172.566 9.01705V13.97C172.564 14.21 172.479 14.443 172.327 14.626C172.245 14.728 172.14 14.809 172.02 14.862C171.902 14.9141 171.772 14.9364 171.643 14.927H158.98V19.902H168.754C168.973 19.892 169.191 19.954 169.373 20.08C169.459 20.1532 169.525 20.2462 169.567 20.3509C169.609 20.4556 169.624 20.569 169.612 20.681V24.967C169.611 25.1664 169.534 25.3578 169.395 25.501C169.321 25.5919 169.225 25.6635 169.117 25.7099C169.01 25.7564 168.892 25.7763 168.775 25.768H159.002V30.899H172.142C172.263 30.8817 172.386 30.8935 172.501 30.9335C172.617 30.9736 172.721 31.0406 172.805 31.129C172.891 31.2187 172.955 31.3269 172.993 31.4453C173.03 31.5637 173.04 31.6892 173.022 31.812V36.842C173.018 36.9813 172.959 37.1134 172.859 37.21C172.859 37.577 172.544 37.767 172.055 37.767H152.279C152.165 37.7749 152.051 37.7603 151.943 37.7239C151.835 37.6875 151.735 37.6301 151.649 37.555C151.567 37.4699 151.504 37.3682 151.465 37.2568C151.426 37.1454 151.411 37.0268 151.421 36.909V8.98405V8.98305Z" fill="#fff"/>
<path fill-rule="evenodd" clip-rule="evenodd" d="M111.35 10.798L100.793 25.875L96.626 22.957C95.939 22.477 95.109 22.878 95.261 23.617L97.484 34.425C97.593 34.95 98.164 35.351 98.695 35.273L109.612 33.665C110.358 33.555 110.452 32.638 109.766 32.157L105.598 29.239L115.172 15.567C117.857 20.696 117.656 27.108 114.106 32.177C109.038 39.417 99.061 41.175 91.823 36.107C84.584 31.038 82.825 21.062 87.893 13.823C92.962 6.58495 102.939 4.82595 110.177 9.89395C110.586 10.18 110.977 10.482 111.35 10.798Z" fill="#fff"/>
<path fill-rule="evenodd" clip-rule="evenodd" d="M105.528 11.56C105.42 11.034 104.848 10.633 104.317 10.712L93.4 12.319C92.654 12.429 92.56 13.347 93.247 13.827L97.414 16.745L87.318 31.163C88.3773 32.8887 89.7375 34.4104 91.334 35.656L102.219 20.11L106.386 23.028C107.073 23.508 107.903 23.106 107.751 22.368L105.528 11.56Z" fill="#5493E3"/>
</svg>
