<svg width="24" height="24" viewBox="0 0 24 24" fill="none" xmlns="http://www.w3.org/2000/svg">
<g clip-path="url(#clip0_2808_9819)">
<path d="M12 0C8.81812 0 5.76375 1.26506 3.51562 3.51469C1.26518 5.76521 0.000623381 8.81734 0 12C0 15.1813 1.26562 18.2357 3.51562 20.4853C5.76375 22.7349 8.81812 24 12 24C15.1819 24 18.2362 22.7349 20.4844 20.4853C22.7344 18.2357 24 15.1813 24 12C24 8.81869 22.7344 5.76431 20.4844 3.51469C18.2362 1.26506 15.1819 0 12 0Z" fill="url(#paint0_linear_2808_9819)"/>
<path d="M5.43087 11.874C8.92962 10.35 11.2621 9.34521 12.4284 8.85977C15.7621 7.47359 16.454 7.23284 16.9059 7.22468C17.0052 7.22309 17.2265 7.24765 17.3709 7.36437C17.4909 7.46281 17.5246 7.59593 17.5415 7.6894C17.5565 7.78277 17.5771 7.99559 17.5602 8.16171C17.3802 10.0592 16.5984 14.6638 16.2009 16.7891C16.034 17.6884 15.7021 17.9899 15.3815 18.0193C14.684 18.0835 14.1552 17.5588 13.4802 17.1165C12.4246 16.4241 11.8284 15.9932 10.8027 15.3176C9.61774 14.5369 10.3865 14.1077 11.0615 13.4065C11.2377 13.2229 14.309 10.4301 14.3671 10.1768C14.3746 10.1451 14.3821 10.027 14.3109 9.96471C14.2415 9.90227 14.1384 9.92365 14.0634 9.94052C13.9565 9.96452 12.2709 11.0798 9.00087 13.2861C8.52274 13.615 8.08962 13.7753 7.69962 13.7668C7.27212 13.7576 6.44712 13.5246 5.83399 13.3255C5.08399 13.0811 4.48587 12.952 4.53837 12.537C4.56462 12.321 4.86274 12.1 5.43087 11.874Z" fill="white"/>
</g>
<defs>
<linearGradient id="paint0_linear_2808_9819" x1="1200" y1="0" x2="1200" y2="2400" gradientUnits="userSpaceOnUse">
<stop stop-color="#2AABEE"/>
<stop offset="1" stop-color="#229ED9"/>
</linearGradient>
<clipPath id="clip0_2808_9819">
<rect width="24" height="24" fill="white"/>
</clipPath>
</defs>
</svg>
