<svg width="36" height="34" viewBox="0 0 36 34" fill="none" xmlns="http://www.w3.org/2000/svg">
<g clip-path="url(#clip0_2809_5193)">
<path d="M28.8131 15.5003C31.4631 15.5003 33.4581 14.3963 34.9291 12.4743L32.9631 10.9743C32.4774 11.6143 31.8498 12.1328 31.1297 12.4889C30.4095 12.845 29.6165 13.029 28.8131 13.0263C25.9371 13.0263 23.8531 10.6833 23.8531 7.80832C23.8531 4.93332 25.9031 2.45834 28.8951 2.45834C30.2251 2.45834 31.1651 2.77233 31.9851 3.28033V5.80832H34.4591V2.12234L33.9851 1.74933C32.6251 0.679329 30.5481 0.111328 28.8121 0.111328C24.5681 0.111328 21.1161 3.56334 21.1161 7.80734C21.1161 12.0473 24.5671 15.5003 28.8131 15.5003ZM33.9461 30.6803L33.8581 27.1373V18.4913H28.6981V20.9663H31.2521V26.8323C31.2521 29.3593 29.3221 31.1483 27.3751 31.1483C25.4281 31.1483 24.4121 29.7983 24.4121 27.2723V18.4903H19.5921V20.9653H21.8061V27.7013C21.8061 31.1293 23.7281 33.4913 27.1561 33.4913C29.1261 33.4913 30.6261 32.3983 31.5211 30.7133H31.5611L31.9141 33.0693H35.8791V30.6833H33.9491V30.6783L33.9461 30.6803ZM20.5461 0.474335H16.2461L12.5061 11.3343H12.4481L8.72807 0.474335H4.14607V2.95032H6.72307L11.1581 15.3283H13.5141V15.3253L18.1391 2.95132H20.5441V0.475342L20.5461 0.474335ZM0.12207 33.1013H2.67007V30.5543H0.12307V33.1013H0.12207ZM9.96207 21.3613H9.93407L9.77407 18.4913H5.22607V20.7473H7.64607V30.6813H5.22607V33.0683H16.4661V30.7283H10.2081V24.7333C10.4911 22.5633 12.1181 20.7103 14.3381 20.7103H14.3781L14.3331 22.9283H16.8071V18.4503H14.8511C12.6111 18.4443 10.9491 19.6563 9.96107 21.3623L9.96207 21.3613Z" fill="black"/>
</g>
<defs>
<clipPath id="clip0_2809_5193">
<rect width="36" height="33.608" fill="white"/>
</clipPath>
</defs>
</svg>
