<svg width="24" height="24" viewBox="0 0 24 24" fill="none" xmlns="http://www.w3.org/2000/svg">
<path d="M22.5084 11.5127C22.5103 11.5127 22.5117 11.5127 22.5137 11.5127C22.6476 11.5127 22.7753 11.4565 22.866 11.3581C22.9581 11.2583 23.0037 11.1244 22.9917 10.989C22.5098 5.68837 18.3132 1.49029 13.0121 1.00741C12.8777 0.996846 12.7423 1.04053 12.6424 1.13317C12.5426 1.22533 12.4869 1.35541 12.4884 1.49125C12.5719 8.53573 13.5012 11.4143 22.5084 11.5127ZM22.5084 12.4861C13.5012 12.5845 12.5724 15.4631 12.4889 22.5076C12.4874 22.6434 12.5431 22.7735 12.6429 22.8656C12.7322 22.9477 12.8489 22.9933 12.9689 22.9933C12.9833 22.9933 12.9981 22.9928 13.0125 22.9914C18.3136 22.5085 22.5103 18.3109 22.9917 13.0098C23.0037 12.8744 22.9586 12.7405 22.866 12.6407C22.7733 12.5408 22.6442 12.4914 22.5084 12.4861ZM10.9543 1.00981C5.66997 1.50661 1.48677 5.70373 1.00725 10.99C0.99525 11.1253 1.04037 11.2592 1.13301 11.3591C1.22373 11.4575 1.35189 11.5132 1.48533 11.5132C1.48725 11.5132 1.48917 11.5132 1.49109 11.5132C10.4685 11.41 11.3954 8.53285 11.4799 1.49317C11.4813 1.35733 11.4252 1.22677 11.3253 1.13461C11.2245 1.04245 11.0896 0.997326 10.9543 1.00981ZM1.49061 12.4856C1.34133 12.4688 1.22421 12.5399 1.13253 12.6397C1.04037 12.7396 0.99477 12.8735 1.00677 13.0088C1.48629 18.2951 5.66997 22.4922 10.9543 22.989C10.9692 22.9904 10.9845 22.9909 10.9994 22.9909C11.1194 22.9909 11.2356 22.9458 11.3248 22.8637C11.4247 22.7716 11.4808 22.641 11.4794 22.5052C11.3949 15.466 10.4685 12.5888 1.49061 12.4856Z" fill="white"/>
</svg>
