<svg width="24" height="24" viewBox="0 0 24 24" fill="none" xmlns="http://www.w3.org/2000/svg">
<g clip-path="url(#clip0_2808_9822)">
<path d="M13.9231 11.8001L11.2279 10.5425C10.9927 10.4333 10.7995 10.5557 10.7995 10.8161V13.1849C10.7995 13.4453 10.9927 13.5677 11.2279 13.4585L13.9219 12.2009C14.1583 12.0905 14.1583 11.9105 13.9231 11.8001ZM11.9995 0.480469C5.63709 0.480469 0.479492 5.63807 0.479492 12.0005C0.479492 18.3629 5.63709 23.5205 11.9995 23.5205C18.3619 23.5205 23.5195 18.3629 23.5195 12.0005C23.5195 5.63807 18.3619 0.480469 11.9995 0.480469ZM11.9995 16.6805C6.10269 16.6805 5.99949 16.1489 5.99949 12.0005C5.99949 7.85207 6.10269 7.32047 11.9995 7.32047C17.8963 7.32047 17.9995 7.85207 17.9995 12.0005C17.9995 16.1489 17.8963 16.6805 11.9995 16.6805Z" fill="#FF0000"/>
</g>
<defs>
<clipPath id="clip0_2808_9822">
<rect width="24" height="24" fill="white"/>
</clipPath>
</defs>
</svg>
