<svg width="24" height="24" viewBox="0 0 24 24" fill="none" xmlns="http://www.w3.org/2000/svg">
<path d="M15 20C12.7667 20 10.875 19.225 9.325 17.675C7.775 16.125 7 14.2333 7 12C7 9.76667 7.775 7.875 9.325 6.325C10.875 4.775 12.7667 4 15 4C17.2333 4 19.125 4.775 20.675 6.325C22.225 7.875 23 9.76667 23 12C23 14.2333 22.225 16.125 20.675 17.675C19.125 19.225 17.2333 20 15 20ZM7.35 19.7C5.46667 19.4667 3.9375 18.6042 2.7625 17.1125C1.5875 15.6208 1 13.9167 1 12C1 10.0833 1.5875 8.37917 2.7625 6.8875C3.9375 5.39583 5.46667 4.53333 7.35 4.3V5.75C5.88333 6.01667 4.70833 6.74583 3.825 7.9375C2.94167 9.12917 2.5 10.4833 2.5 12C2.5 13.5167 2.94167 14.8708 3.825 16.0625C4.70833 17.2542 5.88333 17.9833 7.35 18.25V19.7ZM15 18.5C16.7833 18.5 18.3125 17.8625 19.5875 16.5875C20.8625 15.3125 21.5 13.7833 21.5 12C21.5 10.2167 20.8625 8.6875 19.5875 7.4125C18.3125 6.1375 16.7833 5.5 15 5.5C13.2167 5.5 11.6875 6.1375 10.4125 7.4125C9.1375 8.6875 8.5 10.2167 8.5 12C8.5 13.7833 9.1375 15.3125 10.4125 16.5875C11.6875 17.8625 13.2167 18.5 15 18.5Z" fill="white"/>
</svg>
