<svg width="512" height="512" viewBox="0 0 512 512" fill="none" xmlns="http://www.w3.org/2000/svg">
<path d="M460.833 257.675V457.867C460.833 483.895 439.781 504.948 413.752 504.948H98.249C72.316 504.948 51.167 483.896 51.167 457.867V257.675C51.167 231.647 72.316 210.497 98.249 210.497H413.751C439.78 210.498 460.833 231.647 460.833 257.675Z" fill="#94C1FF"/>
<path d="M447.244 224.47L314.038 357.58L269.227 402.391C261.896 409.722 250.009 409.722 242.678 402.391L64.7561 224.47C73.3681 215.857 85.2341 210.498 98.2491 210.498H413.751C426.861 210.498 438.727 215.857 447.244 224.47Z" fill="#D7E9FF"/>
<path d="M447.34 490.881C438.823 499.589 426.861 504.948 413.751 504.948H98.2492C85.1392 504.948 73.2722 499.59 64.6602 490.881L197.961 357.676L242.677 402.391C250.008 409.722 261.895 409.722 269.226 402.391L314.037 357.58L447.34 490.881Z" fill="#D7E9FF"/>
<path d="M415.952 70.211V210.593C415.283 210.497 414.517 210.497 413.751 210.497H98.2491C97.4831 210.497 96.8131 210.497 96.0481 210.593V21.434C96.0481 13.491 102.487 7.052 110.43 7.052H352.795L415.952 70.211Z" fill="white"/>
<path d="M415.952 70.211H367.176C359.233 70.211 352.794 63.772 352.794 55.829V7.05298L415.952 70.211Z" fill="#D7E9FF"/>
<path d="M98.2471 510.97H413.753C444.136 510.97 466.857 486.154 466.857 457.866V257.674C466.857 232.701 448.968 209.329 421.975 205.167V70.2111C421.975 69.0261 421.342 67.0841 420.21 65.9531L357.053 2.79405C355.971 1.71005 354.159 1.02905 352.795 1.02905H110.43C99.1801 1.02905 90.0241 10.1811 90.0241 21.4351V205.173C62.7581 209.419 45.1421 232.941 45.1421 257.674V457.866C45.1431 486.926 68.6471 510.97 98.2471 510.97ZM98.2511 498.925C90.2271 498.925 81.2211 496.275 73.5831 490.479L197.963 366.193L238.418 406.648C248.088 416.318 263.815 416.325 273.485 406.648L314.048 366.109L438.422 490.479C430.652 496.366 422.118 498.925 413.754 498.925H98.2511ZM98.2511 216.522H413.753C421.948 216.522 430.582 219.069 438.302 224.891L309.84 353.283C309.822 353.301 309.797 353.306 309.779 353.323L264.968 398.13C260.149 402.945 251.746 402.937 246.935 398.13L73.6991 224.891C81.3981 219.091 90.2761 216.522 98.2511 216.522ZM454.811 457.866C454.811 466.868 451.813 475.131 446.882 481.907L322.566 357.594L446.779 233.454C451.769 240.268 454.812 248.594 454.812 257.675V457.866H454.811ZM401.413 64.1881H367.177C362.566 64.1881 358.817 60.4391 358.817 55.8281V21.5921L401.413 64.1881ZM102.07 21.4351C102.07 16.8241 105.819 13.0751 110.43 13.0751H346.771V55.8281C346.771 67.0781 355.927 76.2341 367.177 76.2341H409.93V204.476H102.07V21.4351ZM57.1891 257.674C57.1891 248.593 60.2331 240.267 65.2231 233.453L189.442 357.672L65.1181 481.905C60.1861 475.131 57.1881 466.867 57.1881 457.866L57.1891 257.674Z" fill="#4172F6"/>
<path d="M244.746 59.9532C244.745 58.3559 244.111 56.8243 242.981 55.6949C241.852 54.5654 240.32 53.9307 238.723 53.9302H152.908C149.583 53.9302 146.885 56.6282 146.885 59.9532C146.885 63.2782 149.583 65.9762 152.908 65.9762H238.723C240.32 65.9756 241.852 65.3409 242.981 64.2115C244.111 63.0821 244.745 61.5504 244.746 59.9532ZM292.777 101.4L230.917 163.833L215.46 144.051C213.405 141.432 209.621 140.961 207.006 143.016C206.383 143.503 205.862 144.108 205.472 144.797C205.083 145.485 204.833 146.244 204.737 147.029C204.641 147.814 204.7 148.61 204.912 149.372C205.124 150.134 205.484 150.847 205.971 151.47L225.636 176.64C226.199 177.361 226.919 177.944 227.741 178.345C228.564 178.746 229.466 178.954 230.381 178.954C231.177 178.954 231.964 178.797 232.699 178.491C233.433 178.184 234.099 177.736 234.659 177.17L301.335 109.879C301.892 109.317 302.333 108.652 302.632 107.919C302.931 107.187 303.084 106.404 303.08 105.613C303.076 104.822 302.917 104.039 302.611 103.31C302.305 102.581 301.858 101.919 301.296 101.362C300.734 100.805 300.068 100.364 299.336 100.065C298.604 99.7649 297.82 99.6125 297.029 99.616C296.238 99.6196 295.455 99.779 294.725 100.085C293.996 100.391 293.334 100.838 292.777 101.4Z" fill="#4172F6"/>
</svg>
