<svg xmlns="http://www.w3.org/2000/svg" width="16" height="16" fill="none"><path fill="#4172F6" d="M14.5 8A6.5 6.5 0 0 1 8 14.5v1A7.5 7.5 0 0 0 15.5 8h-1ZM8 14.5A6.5 6.5 0 0 1 1.5 8h-1A7.5 7.5 0 0 0 8 15.5v-1ZM1.5 8A6.5 6.5 0 0 1 8 1.5v-1A7.5 7.5 0 0 0 .5 8h1ZM8 1.5A6.5 6.5 0 0 1 14.5 8h1A7.5 7.5 0 0 0 8 .5v1Zm-.111 3c0-.061.05-.111.111-.111v1c.49 0 .889-.398.889-.889h-1ZM8 4.389c.061 0 .111.05.111.111h-1c0 .49.398.889.889.889v-1Zm.111.111c0 .061-.05.111-.111.111v-1a.889.889 0 0 0-.889.889h1ZM8 4.611a.111.111 0 0 1-.111-.111h1A.889.889 0 0 0 8 3.611v1Zm.5 7.278V6.444h-1v5.445h1Z"/></svg>