<svg xmlns="http://www.w3.org/2000/svg" width="17" height="12" fill="none"><path fill="#4172F6" stroke="#4172F6" stroke-width=".2" d="M12.25 4.778a.354.354 0 0 0-.317.197.34.34 0 0 0 .049.368l1.966 2.304a.35.35 0 0 0 .268.123.355.355 0 0 0 .268-.123l1.966-2.304a.34.34 0 0 0-.081-.512.355.355 0 0 0-.187-.053H12.25Zm-11 2.152h3.932a.355.355 0 0 0 .316-.197.339.339 0 0 0-.048-.368L3.484 4.062a.35.35 0 0 0-.268-.123.355.355 0 0 0-.268.123L.982 6.365a.341.341 0 0 0 .081.512c.056.035.12.053.187.053Z"/><path fill="#4172F6" fill-rule="evenodd" d="M8.716.974c-1.552 0-2.94.69-3.857 1.774a.497.497 0 0 1-.34.187.512.512 0 0 1-.374-.108.49.49 0 0 1-.18-.338.477.477 0 0 1 .123-.361A6.01 6.01 0 0 1 6.886.278a6.143 6.143 0 0 1 3.379-.08c1.11.29 2.113.885 2.887 1.715a5.802 5.802 0 0 1 1.48 2.965h-1.016a4.864 4.864 0 0 0-1.738-2.804 5.078 5.078 0 0 0-3.162-1.1Zm-4.9 5.856c.19.903.636 1.735 1.29 2.4a5.03 5.03 0 0 0 2.4 1.358 5.12 5.12 0 0 0 2.775-.1 5.008 5.008 0 0 0 2.292-1.528.498.498 0 0 1 .34-.187.511.511 0 0 1 .374.109.491.491 0 0 1 .18.338.477.477 0 0 1-.123.36 6.01 6.01 0 0 1-2.799 1.85 6.142 6.142 0 0 1-3.378.08 6.028 6.028 0 0 1-2.888-1.714A5.804 5.804 0 0 1 2.8 6.83h1.017Z" clip-rule="evenodd"/></svg>