<svg width="24" height="24" viewBox="0 0 24 24" fill="none" xmlns="http://www.w3.org/2000/svg">
<g clip-path="url(#clip0_2808_9824)">
<path d="M11.9995 0.480469C5.63709 0.480469 0.479492 5.63807 0.479492 12.0005C0.479492 18.3629 5.63709 23.5205 11.9995 23.5205C18.3619 23.5205 23.5195 18.3629 23.5195 12.0005C23.5195 5.63807 18.3619 0.480469 11.9995 0.480469ZM16.4299 13.4777C16.4299 13.4777 17.4487 14.4833 17.6995 14.9501C17.7067 14.9597 17.7103 14.9693 17.7127 14.9741C17.8147 15.1457 17.8387 15.2789 17.7883 15.3785C17.7043 15.5441 17.4163 15.6257 17.3179 15.6329H15.5179C15.3931 15.6329 15.1315 15.6005 14.8147 15.3821C14.5711 15.2117 14.3311 14.9321 14.0971 14.6597C13.7479 14.2541 13.4455 13.9037 13.1407 13.9037C13.102 13.9036 13.0635 13.9097 13.0267 13.9217C12.7963 13.9961 12.5011 14.3249 12.5011 15.2009C12.5011 15.4745 12.2851 15.6317 12.1327 15.6317H11.3083C11.0275 15.6317 9.56469 15.5333 8.26869 14.1665C6.68229 12.4925 5.25429 9.13487 5.24229 9.10367C5.15229 8.88647 5.33829 8.77007 5.54109 8.77007H7.35909C7.60149 8.77007 7.68069 8.91767 7.73589 9.04847C7.80069 9.20087 8.03829 9.80687 8.42829 10.4885C9.06069 11.5997 9.44829 12.0509 9.75909 12.0509C9.81737 12.0502 9.87461 12.0354 9.92589 12.0077C10.3315 11.7821 10.2559 10.3361 10.2379 10.0361C10.2379 9.97967 10.2367 9.38927 10.0291 9.10607C9.88029 8.90087 9.62709 8.82287 9.47349 8.79407C9.53566 8.70828 9.61757 8.63872 9.71229 8.59127C9.99069 8.45207 10.4923 8.43167 10.9903 8.43167H11.2675C11.8075 8.43887 11.9467 8.47367 12.1423 8.52287C12.5383 8.61767 12.5467 8.87327 12.5119 9.74807C12.5011 9.99647 12.4903 10.2773 12.4903 10.6085C12.4903 10.6805 12.4867 10.7573 12.4867 10.8389C12.4747 11.2841 12.4603 11.7893 12.7747 11.9969C12.8157 12.0226 12.8631 12.0363 12.9115 12.0365C13.0207 12.0365 13.3495 12.0365 14.2399 10.5089C14.5145 10.0172 14.7531 9.50624 14.9539 8.98007C14.9719 8.94887 15.0247 8.85287 15.0871 8.81567C15.1331 8.79219 15.1842 8.78025 15.2359 8.78087H17.3731C17.6059 8.78087 17.7655 8.81567 17.7955 8.90567C17.8483 9.04847 17.7859 9.48407 16.8103 10.8053L16.3747 11.3801C15.4903 12.5393 15.4903 12.5981 16.4299 13.4777Z" fill="#2D74FF"/>
</g>
<defs>
<clipPath id="clip0_2808_9824">
<rect width="24" height="24" fill="white"/>
</clipPath>
</defs>
</svg>
